<svg xmlns="http://www.w3.org/2000/svg" viewBox="0 0 1600 900" width="1600" height="900" preserveAspectRatio="xMidYMid slice">
  <title>Flame anime-style abstract night sky (original artwork)</title>
  <defs>
    <linearGradient id="sky" x1="0" y1="0" x2="0" y2="1">
      <stop offset="0" stop-color="#141526"/>
      <stop offset=".45" stop-color="#20203e"/>
      <stop offset="1" stop-color="#2b2545"/>
    </linearGradient>
    <radialGradient id="halo" cx=".5" cy=".5" r=".5">
      <stop offset="0" stop-color="#f6ecd8" stop-opacity=".2"/>
      <stop offset=".55" stop-color="#e9d9c6" stop-opacity=".07"/>
      <stop offset="1" stop-color="#e9d9c6" stop-opacity="0"/>
    </radialGradient>
    <linearGradient id="far" x1="0" y1="0" x2="0" y2="1">
      <stop offset="0" stop-color="#252246"/>
      <stop offset="1" stop-color="#1c1a35"/>
    </linearGradient>
    <linearGradient id="near" x1="0" y1="0" x2="0" y2="1">
      <stop offset="0" stop-color="#1b1930"/>
      <stop offset="1" stop-color="#141327"/>
    </linearGradient>
    <linearGradient id="mist" x1="0" y1="0" x2="1" y2="0">
      <stop offset="0" stop-color="#cfc4ea" stop-opacity="0"/>
      <stop offset=".5" stop-color="#cfc4ea" stop-opacity=".16"/>
      <stop offset="1" stop-color="#cfc4ea" stop-opacity="0"/>
    </linearGradient>
    <linearGradient id="water" x1="0" y1="0" x2="0" y2="1">
      <stop offset="0" stop-color="#312c56" stop-opacity=".9"/>
      <stop offset="1" stop-color="#1a1830" stop-opacity=".8"/>
    </linearGradient>
    <radialGradient id="star" cx=".5" cy=".5" r=".5">
      <stop offset="0" stop-color="#ded5f0" stop-opacity="1"/>
      <stop offset="1" stop-color="#ded5f0" stop-opacity="0"/>
    </radialGradient>
    <path id="p" d="M0 0c5-3 10 0 10 5s-5 8-9 6-4-8-1-11z"/>
  </defs>

  <rect width="1600" height="900" fill="url(#sky)"/>
  <circle cx="1150" cy="200" r="290" fill="url(#halo)"/>
  <circle cx="1150" cy="200" r="74" fill="#ece1c8" opacity=".62"/>
  <circle cx="1181" cy="176" r="74" fill="#20203e" opacity=".9"/>

  <g fill="#cdc3e6">
    <circle cx="90" cy="92" r="1.7" opacity=".65"/>
    <circle cx="168" cy="212" r="1.2" opacity=".5"/>
    <circle cx="248" cy="118" r="1.9" opacity=".7"/>
    <circle cx="318" cy="268" r="1.3" opacity=".45"/>
    <circle cx="402" cy="72" r="1.5" opacity=".6"/>
    <circle cx="470" cy="196" r="1.1" opacity=".42"/>
    <circle cx="536" cy="112" r="1.8" opacity=".68"/>
    <circle cx="604" cy="286" r="1.4" opacity=".5"/>
    <circle cx="672" cy="150" r="1.2" opacity=".45"/>
    <circle cx="736" cy="60" r="1.6" opacity=".58"/>
    <circle cx="806" cy="236" r="1.3" opacity=".5"/>
    <circle cx="866" cy="106" r="1.9" opacity=".7"/>
    <circle cx="928" cy="300" r="1.2" opacity=".42"/>
    <circle cx="996" cy="158" r="1.5" opacity=".58"/>
    <circle cx="1064" cy="72" r="1.3" opacity=".5"/>
    <circle cx="1216" cy="132" r="1.4" opacity=".5"/>
    <circle cx="1288" cy="252" r="1.7" opacity=".62"/>
    <circle cx="1352" cy="96" r="1.2" opacity=".45"/>
    <circle cx="1424" cy="196" r="1.8" opacity=".66"/>
    <circle cx="1492" cy="104" r="1.3" opacity=".5"/>
    <circle cx="1548" cy="272" r="1.5" opacity=".55"/>
    <circle cx="42" cy="330" r="1.4" opacity=".5"/>
    <circle cx="596" cy="368" r="1.2" opacity=".4"/>
    <circle cx="1092" cy="352" r="1.3" opacity=".42"/>
    <circle cx="1310" cy="380" r="1.1" opacity=".38"/>
  </g>
  <g fill="url(#star)" opacity=".4">
    <circle cx="248" cy="118" r="7"/>
    <circle cx="866" cy="106" r="6"/>
    <circle cx="1424" cy="196" r="7"/>
    <circle cx="536" cy="112" r="5"/>
  </g>

  <g fill="#3a3560" opacity=".55">
    <ellipse cx="352" cy="228" rx="158" ry="40"/>
    <ellipse cx="482" cy="206" rx="100" ry="50"/>
    <ellipse cx="1214" cy="372" rx="172" ry="38"/>
    <ellipse cx="1082" cy="344" rx="96" ry="44"/>
  </g>
  <rect x="0" y="272" width="1600" height="112" fill="url(#mist)"/>

  <path d="M0 646 240 474 420 622 612 432 830 646 1010 502 1200 664 1400 522 1600 646V900H0z" fill="url(#far)"/>
  <ellipse cx="770" cy="580" rx="186" ry="42" fill="#221f42"/>
  <g fill="#191734">
    <rect x="700" y="468" width="142" height="12" rx="6"/>
    <rect x="716" y="496" width="110" height="8" rx="4"/>
    <rect x="722" y="480" width="12" height="100" rx="3"/>
    <rect x="808" y="480" width="12" height="100" rx="3"/>
  </g>
  <path d="M0 764 200 642 432 782 700 622 942 802 1182 662 1422 802 1600 722V900H0z" fill="url(#near)"/>
  <rect y="792" width="1600" height="108" fill="url(#water)"/>

  <g fill="#e8aac6">
    <use href="#p" transform="translate(140 120) rotate(18) scale(1.6)" opacity=".5"/>
    <use href="#p" transform="translate(268 356) rotate(-32) scale(1.2)" opacity=".38"/>
    <use href="#p" transform="translate(392 96) rotate(64) scale(1.1)" opacity=".34"/>
    <use href="#p" transform="translate(508 404) rotate(-12) scale(1.5)" opacity=".45"/>
    <use href="#p" transform="translate(596 178) rotate(40) scale(1.3)" opacity=".4"/>
    <use href="#p" transform="translate(690 330) rotate(-58) scale(1.05)" opacity=".32"/>
    <use href="#p" transform="translate(764 122) rotate(8) scale(1.45)" opacity=".46"/>
    <use href="#p" transform="translate(878 392) rotate(72) scale(1.2)" opacity=".36"/>
    <use href="#p" transform="translate(958 168) rotate(-24) scale(1.5)" opacity=".42"/>
    <use href="#p" transform="translate(1046 436) rotate(26) scale(1.1)" opacity=".3"/>
    <use href="#p" transform="translate(1258 138) rotate(-46) scale(1.35)" opacity=".38"/>
    <use href="#p" transform="translate(1338 372) rotate(14) scale(1.15)" opacity=".32"/>
    <use href="#p" transform="translate(1470 232) rotate(52) scale(1.4)" opacity=".38"/>
    <use href="#p" transform="translate(90 452) rotate(-8) scale(1.25)" opacity=".32"/>
    <use href="#p" transform="translate(1508 500) rotate(-38) scale(1.05)" opacity=".28"/>
    <use href="#p" transform="translate(330 604) rotate(30) scale(1.3)" opacity=".24"/>
    <use href="#p" transform="translate(1120 596) rotate(-16) scale(1.2)" opacity=".22"/>
  </g>
</svg>
